<svg width="88" height="88" viewBox="0 0 88 88" fill="none" xmlns="http://www.w3.org/2000/svg">
<path d="M0 8C0 3.58172 3.58172 0 8 0H80C84.4183 0 88 3.58172 88 8V80C88 84.4183 84.4183 88 80 88H8C3.58172 88 0 84.4183 0 80V8Z" fill="white"/>
<path d="M17.6001 44.037C17.6001 38.952 18.7872 34.4101 21.1614 30.4112C23.5872 26.3629 26.8646 23.228 30.9936 21.0064C35.1743 18.7355 39.8453 17.6 45.0065 17.6C51.0453 17.6 56.3356 19.081 60.8775 22.0432C65.4195 25.0053 68.5936 29.1029 70.4001 34.336H57.9356C56.6969 31.8676 54.942 30.0162 52.6711 28.782C50.4517 27.5478 47.8711 26.9307 44.9291 26.9307C41.7807 26.9307 38.9678 27.6465 36.4904 29.0782C34.0646 30.4606 32.1549 32.4353 30.7614 35.0025C29.4195 37.5697 28.7485 40.5812 28.7485 44.037C28.7485 47.4435 29.4195 50.455 30.7614 53.0715C32.1549 55.6387 34.0646 57.6381 36.4904 59.0698C38.9678 60.4522 41.7807 61.1433 44.9291 61.1433C47.8711 61.1433 50.4517 60.5262 52.6711 59.292C54.942 58.0084 56.6969 56.1324 57.9356 53.6639H70.4001C68.5936 58.9464 65.4195 63.0687 60.8775 66.0308C56.3872 68.9436 51.0969 70.4 45.0065 70.4C39.8453 70.4 35.1743 69.2892 30.9936 67.0676C26.8646 64.7966 23.5872 61.6617 21.1614 57.6628C18.7872 53.6639 17.6001 49.122 17.6001 44.037Z" fill="#5FCF80"/>
</svg>
